<svg xmlns:dc="http://purl.org/dc/elements/1.1/" xmlns:cc="http://creativecommons.org/ns#" xmlns:rdf="http://www.w3.org/1999/02/22-rdf-syntax-ns#" xmlns:svg="http://www.w3.org/2000/svg" xmlns="http://www.w3.org/2000/svg" xmlns:xlink="http://www.w3.org/1999/xlink" id="svg280203" viewBox="0 0 1024 768" height="768px" width="1024px" version="1.1">
  <metadata id="metadata280209">
    <rdf:rdf>
      <cc:work rdf:about="">
        <dc:format>image/svg+xml</dc:format>
        <dc:type rdf:resource="http://purl.org/dc/dcmitype/StillImage"></dc:type>
      </cc:work>
    </rdf:rdf>
  </metadata>
  <defs id="defs280207"></defs>
  <linearGradient spreadMethod="pad" y2="30%" x2="-10%" y1="120%" x1="30%" id="3d_gradient2-logo-7b15033f-66dc-4d8c-92a3-3ffbbfafd669">
    <stop id="stop280184" stop-opacity="1" stop-color="#ffffff" offset="0%"></stop>
    <stop id="stop280186" stop-opacity="1" stop-color="#000000" offset="100%"></stop>
  </linearGradient>
  <linearGradient gradientTransform="rotate(-30)" spreadMethod="pad" y2="30%" x2="-10%" y1="120%" x1="30%" id="3d_gradient3-logo-7b15033f-66dc-4d8c-92a3-3ffbbfafd669">
    <stop id="stop280189" stop-opacity="1" stop-color="#ffffff" offset="0%"></stop>
    <stop id="stop280191" stop-opacity="1" stop-color="#cccccc" offset="50%"></stop>
    <stop id="stop280193" stop-opacity="1" stop-color="#000000" offset="100%"></stop>
  </linearGradient>
  <g id="logo-group">
    <image xlink:href="" id="container" x="272" y="144" width="480" height="480" transform="translate(0 0)" style="display: none;"></image>
    <g id="logo-center" transform="translate(0 0)">
      <image xlink:href="" id="icon_container" x="0" y="0" style="display: none;"></image>
      <g id="slogan" style="font-style:normal;font-weight:200;font-size:32px;line-height:1;font-family:'Work Sans';font-variant-ligatures:none;text-align:center;text-anchor:middle" transform="translate(0 0)">
        <path id="path280211" style="font-style:normal;font-weight:200;font-size:32px;line-height:1;font-family:'Work Sans';font-variant-ligatures:none;text-align:center;text-anchor:middle" d="m 153.657,-5.344 q -0.896,2.688 -3.136,4.192 -2.208,1.472 -5.312,1.472 -2.88,0 -5.056,-1.312 -2.176,-1.344 -3.36,-3.808 -1.184,-2.464 -1.184,-5.76 0,-3.296 1.184,-5.76 1.184,-2.464 3.36,-3.776 2.176,-1.344 5.024,-1.344 6.336,0 8.192,5.216 l -1.568,0.736 q -0.736,-2.24 -2.368,-3.36 -1.6,-1.12 -4.16,-1.12 -2.368,0 -4.192,1.152 -1.792,1.12 -2.784,3.264 -0.992,2.112 -0.992,4.992 0,2.88 0.96,5.024 0.992,2.112 2.752,3.264 1.792,1.12 4.192,1.12 2.56,0 4.352,-1.248 1.792,-1.248 2.496,-3.552 z" stroke-width="0" stroke-linejoin="miter" stroke-miterlimit="2" fill="#e5e5e5" stroke="#e5e5e5" transform="translate(5.684341886080802e-14 359.629) translate(211.86837500000019 57.632000000000005) scale(0.75) translate(-135.609 21.44)"></path>
        <path id="path280213" style="font-style:normal;font-weight:200;font-size:32px;line-height:1;font-family:'Work Sans';font-variant-ligatures:none;text-align:center;text-anchor:middle" d="m 163.5025,-16.32 q 3.552,0 5.568,2.24 2.048,2.208 2.048,6.08 0,3.872 -2.048,6.112 -2.016,2.208 -5.568,2.208 -3.552,0 -5.6,-2.208 -2.016,-2.24 -2.016,-6.112 0,-3.872 2.016,-6.08 2.048,-2.24 5.6,-2.24 z m 0,1.376 q -2.816,0 -4.416,1.856 -1.6,1.856 -1.6,5.088 0,3.232 1.6,5.088 1.6,1.856 4.416,1.856 2.816,0 4.416,-1.856 1.6,-1.856 1.6,-5.088 0,-3.232 -1.6,-5.088 -1.6,-1.856 -4.416,-1.856 z" stroke-width="0" stroke-linejoin="miter" stroke-miterlimit="2" fill="#e5e5e5" stroke="#e5e5e5" transform="translate(5.684341886080802e-14 359.629) translate(227.82650000000018 61.471999999999994) scale(0.75) translate(-155.8865 16.32)"></path>
        <path id="path280215" style="font-style:normal;font-weight:200;font-size:32px;line-height:1;font-family:'Work Sans';font-variant-ligatures:none;text-align:center;text-anchor:middle" d="m 182.586,-16.32 q 2.752,0 4.416,1.536 1.696,1.536 1.696,4.416 V 0 h -1.6 v -9.856 q 0,-2.56 -1.248,-3.808 -1.248,-1.248 -3.424,-1.248 -1.536,0 -2.848,0.704 -1.312,0.704 -2.112,2.048 -0.768,1.344 -0.768,3.136 V 0 h -1.6 v -16 h 1.44 l 0.064,3.232 q 0.768,-1.728 2.336,-2.624 1.6,-0.928 3.648,-0.928 z" stroke-width="0" stroke-linejoin="miter" stroke-miterlimit="2" fill="#e5e5e5" stroke="#e5e5e5" transform="translate(5.684341886080802e-14 359.629) translate(242.98512500000018 61.471999999999994) scale(0.75) translate(-175.098 16.32)"></path>
        <path id="path280217" style="font-style:normal;font-weight:200;font-size:32px;line-height:1;font-family:'Work Sans';font-variant-ligatures:none;text-align:center;text-anchor:middle" d="m 206.785,-8.384 q 0,0.544 -0.064,1.056 h -12.704 q 0.16,2.944 1.728,4.608 1.6,1.632 4.256,1.632 1.888,0 3.232,-0.768 1.376,-0.768 1.984,-2.176 l 1.344,0.704 q -0.896,1.76 -2.56,2.72 -1.664,0.928 -4,0.928 -3.552,0 -5.568,-2.208 -1.984,-2.208 -1.984,-6.112 0,-3.904 1.92,-6.112 1.952,-2.208 5.44,-2.208 3.264,0 5.12,2.176 1.856,2.176 1.856,5.76 z m -6.976,-6.528 q -2.592,0 -4.096,1.632 -1.504,1.6 -1.696,4.512 h 11.264 q -0.16,-2.88 -1.6,-4.512 -1.408,-1.632 -3.872,-1.632 z" stroke-width="0" stroke-linejoin="miter" stroke-miterlimit="2" fill="#e5e5e5" stroke="#e5e5e5" transform="translate(5.684341886080802e-14 359.629) translate(256.7483750000002 61.471999999999994) scale(0.75) translate(-192.449 16.32)"></path>
        <path id="path280219" style="font-style:normal;font-weight:200;font-size:32px;line-height:1;font-family:'Work Sans';font-variant-ligatures:none;text-align:center;text-anchor:middle" d="m 217.0635,-16.32 q 2.4,0 4.064,1.152 1.696,1.12 2.432,3.168 l -1.504,0.704 q -0.544,-1.76 -1.824,-2.688 -1.28,-0.928 -3.2,-0.928 -2.784,0 -4.352,1.856 -1.568,1.824 -1.568,5.056 0,3.264 1.536,5.088 1.568,1.824 4.352,1.824 2.048,0 3.456,-0.992 1.44,-1.024 1.76,-2.816 l 1.472,0.512 q -0.64,2.176 -2.432,3.456 -1.76,1.248 -4.224,1.248 -3.552,0 -5.536,-2.208 -1.984,-2.208 -1.984,-6.112 0,-3.904 1.984,-6.112 2.016,-2.208 5.568,-2.208 z" stroke-width="0" stroke-linejoin="miter" stroke-miterlimit="2" fill="#e5e5e5" stroke="#e5e5e5" transform="translate(5.684341886080802e-14 359.629) translate(270.2952500000002 61.471999999999994) scale(0.75) translate(-209.5115 16.32)"></path>
        <path id="path280221" style="font-style:normal;font-weight:200;font-size:32px;line-height:1;font-family:'Work Sans';font-variant-ligatures:none;text-align:center;text-anchor:middle" d="m 236.1175,-1.024 q -0.64,0.64 -1.568,0.992 -0.928,0.352 -2.048,0.352 -1.952,0 -3.072,-1.056 -1.088,-1.088 -1.088,-3.264 v -10.624 h -3.2 V -16 h 3.2 v -4 l 1.6,-0.448 V -16 h 6.016 v 1.376 h -6.016 v 10.4 q 0,1.504 0.704,2.304 0.736,0.768 2.112,0.768 1.6,0 2.784,-1.184 z" stroke-width="0" stroke-linejoin="miter" stroke-miterlimit="2" fill="#e5e5e5" stroke="#e5e5e5" transform="translate(5.684341886080802e-14 359.629) translate(282.7677500000002 58.376000000000005) scale(0.75) translate(-225.1415 20.448)"></path>
        <path id="path280223" style="font-style:normal;font-weight:200;font-size:32px;line-height:1;font-family:'Work Sans';font-variant-ligatures:none;text-align:center;text-anchor:middle" d="m 250.6495,-1.056 q 0.8,0 1.248,-0.224 L 251.8015,0 q -0.576,0.32 -1.568,0.32 -1.12,0 -1.824,-0.608 -0.704,-0.608 -0.8,-2.112 -0.736,1.28 -2.368,2.016 -1.632,0.704 -3.424,0.704 -2.368,0 -3.808,-1.056 -1.408,-1.056 -1.408,-3.008 0,-3.712 6.08,-4.8 l 4.896,-0.864 v -1.408 q 0,-1.92 -1.152,-3.008 -1.12,-1.088 -3.2,-1.088 -3.808,0 -5.12,3.392 l -1.216,-0.896 q 0.704,-1.888 2.336,-2.88 1.632,-1.024 4,-1.024 2.784,0 4.352,1.376 1.6,1.344 1.6,3.936 v 8.256 q 0,1.696 1.472,1.696 z m -8.672,-0.032 q 1.344,0 2.624,-0.448 1.28,-0.48 2.112,-1.376 0.864,-0.928 0.864,-2.208 v -2.976 l -4.384,0.8 q -2.592,0.48 -3.776,1.344 -1.184,0.864 -1.184,2.208 0,1.28 0.992,1.984 0.992,0.672 2.752,0.672 z" stroke-width="0" stroke-linejoin="miter" stroke-miterlimit="2" fill="#e5e5e5" stroke="#e5e5e5" transform="translate(5.684341886080802e-14 359.629) translate(292.11275000000023 61.471999999999994) scale(0.75) translate(-236.6015 16.32)"></path>
        <path id="path280225" style="font-style:normal;font-weight:200;font-size:32px;line-height:1;font-family:'Work Sans';font-variant-ligatures:none;text-align:center;text-anchor:middle" d="m 261.836,-16.32 q 2.752,0 4.416,1.536 1.696,1.536 1.696,4.416 V 0 h -1.6 v -9.856 q 0,-2.56 -1.248,-3.808 -1.248,-1.248 -3.424,-1.248 -1.536,0 -2.848,0.704 -1.312,0.704 -2.112,2.048 -0.768,1.344 -0.768,3.136 V 0 h -1.6 v -16 h 1.44 l 0.064,3.232 q 0.768,-1.728 2.336,-2.624 1.6,-0.928 3.648,-0.928 z" stroke-width="0" stroke-linejoin="miter" stroke-miterlimit="2" fill="#e5e5e5" stroke="#e5e5e5" transform="translate(5.684341886080802e-14 359.629) translate(306.17262500000027 61.471999999999994) scale(0.75) translate(-254.348 16.32)"></path>
        <path id="path280227" style="font-style:normal;font-weight:200;font-size:32px;line-height:1;font-family:'Work Sans';font-variant-ligatures:none;text-align:center;text-anchor:middle" d="M 286.515,-23.36 V 0 h -1.44 l -0.096,-3.584 q -0.672,1.824 -2.24,2.88 -1.568,1.024 -3.712,1.024 -3.392,0 -5.376,-2.208 -1.952,-2.208 -1.952,-6.112 0,-3.904 1.952,-6.112 1.984,-2.208 5.376,-2.208 2.08,0 3.616,0.992 1.536,0.992 2.272,2.72 V -23.36 Z m -7.296,22.272 q 2.496,0 4.032,-1.664 1.536,-1.696 1.664,-4.576 v -1.344 q -0.16,-2.88 -1.696,-4.544 -1.504,-1.696 -4,-1.696 -2.784,0 -4.352,1.856 -1.568,1.824 -1.568,5.056 0,3.232 1.568,5.088 1.568,1.824 4.352,1.824 z" stroke-width="0" stroke-linejoin="miter" stroke-miterlimit="2" fill="#e5e5e5" stroke="#e5e5e5" transform="translate(5.684341886080802e-14 359.629) translate(319.93587500000024 56.19200000000001) scale(0.75) translate(-271.699 23.36)"></path>
        <path id="path280229" style="font-style:normal;font-weight:200;font-size:32px;line-height:1;font-family:'Work Sans';font-variant-ligatures:none;text-align:center;text-anchor:middle" d="m 298.065,-16.32 q 3.552,0 5.568,2.24 2.048,2.208 2.048,6.08 0,3.872 -2.048,6.112 -2.016,2.208 -5.568,2.208 -3.552,0 -5.6,-2.208 -2.016,-2.24 -2.016,-6.112 0,-3.872 2.016,-6.08 2.048,-2.24 5.6,-2.24 z m 0,1.376 q -2.816,0 -4.416,1.856 -1.6,1.856 -1.6,5.088 0,3.232 1.6,5.088 1.6,1.856 4.416,1.856 2.816,0 4.416,-1.856 1.6,-1.856 1.6,-5.088 0,-3.232 -1.6,-5.088 -1.6,-1.856 -4.416,-1.856 z" stroke-width="0" stroke-linejoin="miter" stroke-miterlimit="2" fill="#e5e5e5" stroke="#e5e5e5" transform="translate(5.684341886080802e-14 359.629) translate(334.7483750000003 61.471999999999994) scale(0.75) translate(-290.449 16.32)"></path>
        <path id="path280231" style="font-style:normal;font-weight:200;font-size:32px;line-height:1;font-family:'Work Sans';font-variant-ligatures:none;text-align:center;text-anchor:middle" d="m 325.1885,-16.32 q 2.4,0 4.064,1.152 1.696,1.12 2.432,3.168 l -1.504,0.704 q -0.544,-1.76 -1.824,-2.688 -1.28,-0.928 -3.2,-0.928 -2.784,0 -4.352,1.856 -1.568,1.824 -1.568,5.056 0,3.264 1.536,5.088 1.568,1.824 4.352,1.824 2.048,0 3.456,-0.992 1.44,-1.024 1.76,-2.816 l 1.472,0.512 q -0.64,2.176 -2.432,3.456 -1.76,1.248 -4.224,1.248 -3.552,0 -5.536,-2.208 -1.984,-2.208 -1.984,-6.112 0,-3.904 1.984,-6.112 2.016,-2.208 5.568,-2.208 z" stroke-width="0" stroke-linejoin="miter" stroke-miterlimit="2" fill="#e5e5e5" stroke="#e5e5e5" transform="translate(5.684341886080802e-14 359.629) translate(355.88900000000024 61.471999999999994) scale(0.75) translate(-317.6365 16.32)"></path>
        <path id="path280233" style="font-style:normal;font-weight:200;font-size:32px;line-height:1;font-family:'Work Sans';font-variant-ligatures:none;text-align:center;text-anchor:middle" d="m 336.8825,-3.872 q 0,1.472 0.448,2.08 0.48,0.608 1.568,0.608 0.64,0 1.088,-0.096 0.448,-0.096 1.024,-0.352 l -0.224,1.536 q -0.896,0.416 -2.112,0.416 -1.728,0 -2.56,-0.96 -0.832,-0.992 -0.832,-3.072 V -23.36 h 1.6 z" stroke-width="0" stroke-linejoin="miter" stroke-miterlimit="2" fill="#e5e5e5" stroke="#e5e5e5" transform="translate(5.684341886080802e-14 359.629) translate(369.87350000000026 56.19200000000001) scale(0.75) translate(-335.2825 23.36)"></path>
        <path id="path280235" style="font-style:normal;font-weight:200;font-size:32px;line-height:1;font-family:'Work Sans';font-variant-ligatures:none;text-align:center;text-anchor:middle" d="m 344.573,0 h -1.6 v -16 h 1.6 z m 2.592,-23.712 -3.008,5.056 h -1.312 l 2.56,-5.056 z" stroke-width="0" stroke-linejoin="miter" stroke-miterlimit="2" fill="#e5e5e5" stroke="#e5e5e5" transform="translate(5.684341886080802e-14 359.629) translate(376.29537500000026 55.928) scale(0.75) translate(-342.845 23.712)"></path>
        <path id="path280237" style="font-style:normal;font-weight:200;font-size:32px;line-height:1;font-family:'Work Sans';font-variant-ligatures:none;text-align:center;text-anchor:middle" d="m 356.3985,-16.32 q 2.752,0 4.416,1.536 1.696,1.536 1.696,4.416 V 0 h -1.6 v -9.856 q 0,-2.56 -1.248,-3.808 -1.248,-1.248 -3.424,-1.248 -1.536,0 -2.848,0.704 -1.312,0.704 -2.112,2.048 -0.768,1.344 -0.768,3.136 V 0 h -1.6 v -16 h 1.44 l 0.064,3.232 q 0.768,-1.728 2.336,-2.624 1.6,-0.928 3.648,-0.928 z" stroke-width="0" stroke-linejoin="miter" stroke-miterlimit="2" fill="#e5e5e5" stroke="#e5e5e5" transform="translate(5.684341886080802e-14 359.629) translate(381.59450000000027 61.471999999999994) scale(0.75) translate(-348.9105 16.32)"></path>
        <path id="path280239" style="font-style:normal;font-weight:200;font-size:32px;line-height:1;font-family:'Work Sans';font-variant-ligatures:none;text-align:center;text-anchor:middle" d="m 368.0855,-19.104 q -0.608,0 -0.992,-0.352 -0.352,-0.384 -0.352,-0.992 0,-0.608 0.352,-0.96 0.384,-0.384 0.992,-0.384 0.608,0 0.96,0.384 0.384,0.352 0.384,0.96 0,0.608 -0.384,0.992 -0.352,0.352 -0.96,0.352 z m 0.8,19.104 h -1.6 v -16 h 1.6 z" stroke-width="0" stroke-linejoin="miter" stroke-miterlimit="2" fill="#e5e5e5" stroke="#e5e5e5" transform="translate(5.684341886080802e-14 359.629) translate(395.7177500000002 57.367999999999995) scale(0.75) translate(-366.7415 21.792)"></path>
        <path id="path280241" style="font-style:normal;font-weight:200;font-size:32px;line-height:1;font-family:'Work Sans';font-variant-ligatures:none;text-align:center;text-anchor:middle" d="m 379.751,-16.32 q 2.4,0 4.064,1.152 1.696,1.12 2.432,3.168 l -1.504,0.704 q -0.544,-1.76 -1.824,-2.688 -1.28,-0.928 -3.2,-0.928 -2.784,0 -4.352,1.856 -1.568,1.824 -1.568,5.056 0,3.264 1.536,5.088 1.568,1.824 4.352,1.824 2.048,0 3.456,-0.992 1.44,-1.024 1.76,-2.816 l 1.472,0.512 q -0.64,2.176 -2.432,3.456 -1.76,1.248 -4.224,1.248 -3.552,0 -5.536,-2.208 -1.984,-2.208 -1.984,-6.112 0,-3.904 1.984,-6.112 2.016,-2.208 5.568,-2.208 z" stroke-width="0" stroke-linejoin="miter" stroke-miterlimit="2" fill="#e5e5e5" stroke="#e5e5e5" transform="translate(5.684341886080802e-14 359.629) translate(400.56087500000024 61.471999999999994) scale(0.75) translate(-372.199 16.32)"></path>
        <path id="path280243" style="font-style:normal;font-weight:200;font-size:32px;line-height:1;font-family:'Work Sans';font-variant-ligatures:none;text-align:center;text-anchor:middle" d="m 402.837,-1.056 q 0.8,0 1.248,-0.224 L 403.989,0 q -0.576,0.32 -1.568,0.32 -1.12,0 -1.824,-0.608 -0.704,-0.608 -0.8,-2.112 -0.736,1.28 -2.368,2.016 -1.632,0.704 -3.424,0.704 -2.368,0 -3.808,-1.056 -1.408,-1.056 -1.408,-3.008 0,-3.712 6.08,-4.8 l 4.896,-0.864 v -1.408 q 0,-1.92 -1.152,-3.008 -1.12,-1.088 -3.2,-1.088 -3.808,0 -5.12,3.392 l -1.216,-0.896 q 0.704,-1.888 2.336,-2.88 1.632,-1.024 4,-1.024 2.784,0 4.352,1.376 1.6,1.344 1.6,3.936 v 8.256 q 0,1.696 1.472,1.696 z m -8.672,-0.032 q 1.344,0 2.624,-0.448 1.28,-0.48 2.112,-1.376 0.864,-0.928 0.864,-2.208 v -2.976 l -4.384,0.8 q -2.592,0.48 -3.776,1.344 -1.184,0.864 -1.184,2.208 0,1.28 0.992,1.984 0.992,0.672 2.752,0.672 z" stroke-width="0" stroke-linejoin="miter" stroke-miterlimit="2" fill="#e5e5e5" stroke="#e5e5e5" transform="translate(5.684341886080802e-14 359.629) translate(413.75337500000023 61.471999999999994) scale(0.75) translate(-388.789 16.32)"></path>
        <path id="path280245" style="font-style:normal;font-weight:200;font-size:32px;line-height:1;font-family:'Work Sans';font-variant-ligatures:none;text-align:center;text-anchor:middle" d="m 411.7515,0.32 q -2.432,0 -4.224,-0.96 -1.792,-0.96 -2.464,-2.784 l 1.312,-0.864 q 0.48,1.6 1.952,2.4 1.472,0.8 3.616,0.8 2.176,0 3.392,-0.832 1.248,-0.832 1.248,-2.208 0,-1.184 -1.056,-1.888 -1.056,-0.704 -3.712,-1.184 -3.36,-0.608 -4.736,-1.632 -1.376,-1.024 -1.376,-2.912 0,-1.248 0.768,-2.304 0.768,-1.056 2.176,-1.664 1.408,-0.608 3.2,-0.608 2.528,0 4.032,0.96 1.536,0.96 2.112,2.944 l -1.376,0.8 q -0.896,-3.296 -4.768,-3.296 -1.28,0 -2.336,0.416 -1.024,0.416 -1.632,1.12 -0.576,0.672 -0.576,1.472 0,1.312 1.088,2.048 1.088,0.736 3.84,1.216 3.264,0.544 4.608,1.568 1.344,1.024 1.344,2.88 0,2.048 -1.76,3.296 -1.728,1.216 -4.672,1.216 z" stroke-width="0" stroke-linejoin="miter" stroke-miterlimit="2" fill="#e5e5e5" stroke="#e5e5e5" transform="translate(5.684341886080802e-14 359.629) translate(426.7092500000002 61.471999999999994) scale(0.75) translate(-405.0635 16.32)"></path>
        <path id="path280247" style="font-style:normal;font-weight:200;font-size:32px;line-height:1;font-family:'Work Sans';font-variant-ligatures:none;text-align:center;text-anchor:middle" d="m 443.712,-1.056 q 0.8,0 1.248,-0.224 L 444.864,0 q -0.576,0.32 -1.568,0.32 -1.12,0 -1.824,-0.608 -0.704,-0.608 -0.8,-2.112 -0.736,1.28 -2.368,2.016 -1.632,0.704 -3.424,0.704 -2.368,0 -3.808,-1.056 -1.408,-1.056 -1.408,-3.008 0,-3.712 6.08,-4.8 l 4.896,-0.864 v -1.408 q 0,-1.92 -1.152,-3.008 -1.12,-1.088 -3.2,-1.088 -3.808,0 -5.12,3.392 l -1.216,-0.896 q 0.704,-1.888 2.336,-2.88 1.632,-1.024 4,-1.024 2.784,0 4.352,1.376 1.6,1.344 1.6,3.936 v 8.256 q 0,1.696 1.472,1.696 z m -8.672,-0.032 q 1.344,0 2.624,-0.448 1.28,-0.48 2.112,-1.376 0.864,-0.928 0.864,-2.208 v -2.976 l -4.384,0.8 q -2.592,0.48 -3.776,1.344 -1.184,0.864 -1.184,2.208 0,1.28 0.992,1.984 0.992,0.672 2.752,0.672 z" stroke-width="0" stroke-linejoin="miter" stroke-miterlimit="2" fill="#e5e5e5" stroke="#e5e5e5" transform="translate(5.684341886080802e-14 359.629) translate(445.90962500000023 61.471999999999994) scale(0.75) translate(-429.664 16.32)"></path>
        <path id="path280249" style="font-style:normal;font-weight:200;font-size:32px;line-height:1;font-family:'Work Sans';font-variant-ligatures:none;text-align:center;text-anchor:middle" d="m 454.0025,-16.32 q 3.552,0 5.568,2.24 2.048,2.208 2.048,6.08 0,3.872 -2.048,6.112 -2.016,2.208 -5.568,2.208 -3.552,0 -5.6,-2.208 -2.016,-2.24 -2.016,-6.112 0,-3.872 2.016,-6.08 2.048,-2.24 5.6,-2.24 z m 0,1.376 q -2.816,0 -4.416,1.856 -1.6,1.856 -1.6,5.088 0,3.232 1.6,5.088 1.6,1.856 4.416,1.856 2.816,0 4.416,-1.856 1.6,-1.856 1.6,-5.088 0,-3.232 -1.6,-5.088 -1.6,-1.856 -4.416,-1.856 z" stroke-width="0" stroke-linejoin="miter" stroke-miterlimit="2" fill="#e5e5e5" stroke="#e5e5e5" transform="translate(5.684341886080802e-14 359.629) translate(459.20150000000024 61.471999999999994) scale(0.75) translate(-446.3865 16.32)"></path>
        <path id="path280251" style="font-style:normal;font-weight:200;font-size:32px;line-height:1;font-family:'Work Sans';font-variant-ligatures:none;text-align:center;text-anchor:middle" d="m 476.661,-16 h 5.632 v 1.376 h -5.632 V 0 h -1.6 v -14.624 h -3.2 V -16 h 3.2 v -2.688 q 0,-2.24 1.248,-3.52 1.248,-1.312 3.52,-1.312 1.728,0 2.592,0.864 l -0.448,1.28 q -0.8,-0.704 -2.016,-0.704 -1.568,0 -2.432,0.928 -0.864,0.896 -0.864,2.624 z" stroke-width="0" stroke-linejoin="miter" stroke-miterlimit="2" fill="#e5e5e5" stroke="#e5e5e5" transform="translate(5.684341886080802e-14 359.629) translate(479.0573750000002 56.072) scale(0.75) translate(-471.861 23.52)"></path>
        <path id="path280253" style="font-style:normal;font-weight:200;font-size:32px;line-height:1;font-family:'Work Sans';font-variant-ligatures:none;text-align:center;text-anchor:middle" d="M 497.503,-16 V 0 h -1.44 l -0.064,-3.168 q -0.8,1.696 -2.4,2.592 -1.6,0.896 -3.776,0.896 -2.624,0 -4.192,-1.44 -1.568,-1.472 -1.568,-4.32 V -16 h 1.6 v 10.176 q 0,4.736 4.416,4.736 1.76,0 3.072,-0.768 1.344,-0.768 2.048,-2.08 0.704,-1.312 0.704,-2.88 V -16 Z" stroke-width="0" stroke-linejoin="miter" stroke-miterlimit="2" fill="#e5e5e5" stroke="#e5e5e5" transform="translate(5.684341886080802e-14 359.629) translate(488.9588750000002 61.712) scale(0.75) translate(-484.063 16)"></path>
        <path id="path280255" style="font-style:normal;font-weight:200;font-size:32px;line-height:1;font-family:'Work Sans';font-variant-ligatures:none;text-align:center;text-anchor:middle" d="m 511.1175,-1.024 q -0.64,0.64 -1.568,0.992 -0.928,0.352 -2.048,0.352 -1.952,0 -3.072,-1.056 -1.088,-1.088 -1.088,-3.264 v -10.624 h -3.2 V -16 h 3.2 v -4 l 1.6,-0.448 V -16 h 6.016 v 1.376 h -6.016 v 10.4 q 0,1.504 0.704,2.304 0.736,0.768 2.112,0.768 1.6,0 2.784,-1.184 z" stroke-width="0" stroke-linejoin="miter" stroke-miterlimit="2" fill="#e5e5e5" stroke="#e5e5e5" transform="translate(5.684341886080802e-14 359.629) translate(501.7677500000002 58.376000000000005) scale(0.75) translate(-500.1415 20.448)"></path>
        <path id="path280257" style="font-style:normal;font-weight:200;font-size:32px;line-height:1;font-family:'Work Sans';font-variant-ligatures:none;text-align:center;text-anchor:middle" d="M 526.0655,-16 V 0 h -1.44 l -0.064,-3.168 q -0.8,1.696 -2.4,2.592 -1.6,0.896 -3.776,0.896 -2.624,0 -4.192,-1.44 -1.568,-1.472 -1.568,-4.32 V -16 h 1.6 v 10.176 q 0,4.736 4.416,4.736 1.76,0 3.072,-0.768 1.344,-0.768 2.048,-2.08 0.704,-1.312 0.704,-2.88 V -16 Z" stroke-width="0" stroke-linejoin="miter" stroke-miterlimit="2" fill="#e5e5e5" stroke="#e5e5e5" transform="translate(5.684341886080802e-14 359.629) translate(511.8807500000002 61.712) scale(0.75) translate(-512.6255 16)"></path>
        <path id="path280259" style="font-style:normal;font-weight:200;font-size:32px;line-height:1;font-family:'Work Sans';font-variant-ligatures:none;text-align:center;text-anchor:middle" d="m 537.568,-16.32 q 1.28,0 2.016,0.544 l -0.416,1.504 q -0.736,-0.576 -2.048,-0.576 -1.216,0 -2.304,0.768 -1.056,0.736 -1.728,2.112 -0.64,1.344 -0.64,3.008 V 0 h -1.6 v -16 h 1.344 l 0.192,3.264 q 0.672,-1.696 1.984,-2.624 1.344,-0.96 3.2,-0.96 z" stroke-width="0" stroke-linejoin="miter" stroke-miterlimit="2" fill="#e5e5e5" stroke="#e5e5e5" transform="translate(5.684341886080802e-14 359.629) translate(526.2976250000002 61.471999999999994) scale(0.75) translate(-530.848 16.32)"></path>
        <path id="path280261" style="font-style:normal;font-weight:200;font-size:32px;line-height:1;font-family:'Work Sans';font-variant-ligatures:none;text-align:center;text-anchor:middle" d="m 547.44,-16.32 q 3.552,0 5.568,2.24 2.048,2.208 2.048,6.08 0,3.872 -2.048,6.112 -2.016,2.208 -5.568,2.208 -3.552,0 -5.6,-2.208 -2.016,-2.24 -2.016,-6.112 0,-3.872 2.016,-6.08 2.048,-2.24 5.6,-2.24 z m 0,1.376 q -2.816,0 -4.416,1.856 -1.6,1.856 -1.6,5.088 0,3.232 1.6,5.088 1.6,1.856 4.416,1.856 2.816,0 4.416,-1.856 1.6,-1.856 1.6,-5.088 0,-3.232 -1.6,-5.088 -1.6,-1.856 -4.416,-1.856 z" stroke-width="0" stroke-linejoin="miter" stroke-miterlimit="2" fill="#e5e5e5" stroke="#e5e5e5" transform="translate(5.684341886080802e-14 359.629) translate(533.7796250000001 61.471999999999994) scale(0.75) translate(-539.824 16.32)"></path>
        <path id="path280263" style="font-style:normal;font-weight:200;font-size:32px;line-height:1;font-family:'Work Sans';font-variant-ligatures:none;text-align:center;text-anchor:middle" d="m 558.9895,-2.624 q 0.832,0 1.28,0.64 0.48,0.64 0.48,1.696 0,1.344 -0.704,2.528 -0.704,1.184 -2.048,1.856 l -0.896,-0.8 q 1.12,-0.416 1.824,-1.408 0.736,-0.992 0.672,-1.92 l -0.096,-0.032 q -0.224,0.32 -0.736,0.32 -0.48,0 -0.864,-0.384 -0.384,-0.384 -0.384,-1.024 0,-0.608 0.416,-1.024 0.448,-0.448 1.056,-0.448 z" stroke-width="0" stroke-linejoin="miter" stroke-miterlimit="2" fill="#e5e5e5" stroke="#e5e5e5" transform="translate(5.684341886080802e-14 359.629) translate(547.4877500000001 71.744) scale(0.75) translate(-557.1015 2.624)"></path>
        <path id="path280265" style="font-style:normal;font-weight:200;font-size:32px;line-height:1;font-family:'Work Sans';font-variant-ligatures:none;text-align:center;text-anchor:middle" d="m 585.9725,-8.384 q 0,0.544 -0.064,1.056 h -12.704 q 0.16,2.944 1.728,4.608 1.6,1.632 4.256,1.632 1.888,0 3.232,-0.768 1.376,-0.768 1.984,-2.176 l 1.344,0.704 q -0.896,1.76 -2.56,2.72 -1.664,0.928 -4,0.928 -3.552,0 -5.568,-2.208 -1.984,-2.208 -1.984,-6.112 0,-3.904 1.92,-6.112 1.952,-2.208 5.44,-2.208 3.264,0 5.12,2.176 1.856,2.176 1.856,5.76 z m -6.976,-6.528 q -2.592,0 -4.096,1.632 -1.504,1.6 -1.696,4.512 h 11.264 q -0.16,-2.88 -1.6,-4.512 -1.408,-1.632 -3.872,-1.632 z" stroke-width="0" stroke-linejoin="miter" stroke-miterlimit="2" fill="#e5e5e5" stroke="#e5e5e5" transform="translate(5.684341886080802e-14 359.629) translate(559.1390000000001 61.471999999999994) scale(0.75) translate(-571.6365 16.32)"></path>
        <path id="path280267" style="font-style:normal;font-weight:200;font-size:32px;line-height:1;font-family:'Work Sans';font-variant-ligatures:none;text-align:center;text-anchor:middle" d="m 598.3675,-1.024 q -0.64,0.64 -1.568,0.992 -0.928,0.352 -2.048,0.352 -1.952,0 -3.072,-1.056 -1.088,-1.088 -1.088,-3.264 v -10.624 h -3.2 V -16 h 3.2 v -4 l 1.6,-0.448 V -16 h 6.016 v 1.376 h -6.016 v 10.4 q 0,1.504 0.704,2.304 0.736,0.768 2.112,0.768 1.6,0 2.784,-1.184 z" stroke-width="0" stroke-linejoin="miter" stroke-miterlimit="2" fill="#e5e5e5" stroke="#e5e5e5" transform="translate(5.684341886080802e-14 359.629) translate(571.7052500000001 58.376000000000005) scale(0.75) translate(-587.3915 20.448)"></path>
        <path id="path280269" style="font-style:normal;font-weight:200;font-size:32px;line-height:1;font-family:'Work Sans';font-variant-ligatures:none;text-align:center;text-anchor:middle" d="m 613.3475,-8.384 q 0,0.544 -0.064,1.056 h -12.704 q 0.16,2.944 1.728,4.608 1.6,1.632 4.256,1.632 1.888,0 3.232,-0.768 1.376,-0.768 1.984,-2.176 l 1.344,0.704 q -0.896,1.76 -2.56,2.72 -1.664,0.928 -4,0.928 -3.552,0 -5.568,-2.208 -1.984,-2.208 -1.984,-6.112 0,-3.904 1.92,-6.112 1.952,-2.208 5.44,-2.208 3.264,0 5.12,2.176 1.856,2.176 1.856,5.76 z m -6.976,-6.528 q -2.592,0 -4.096,1.632 -1.504,1.6 -1.696,4.512 h 11.264 q -0.16,-2.88 -1.6,-4.512 -1.408,-1.632 -3.872,-1.632 z" stroke-width="0" stroke-linejoin="miter" stroke-miterlimit="2" fill="#e5e5e5" stroke="#e5e5e5" transform="translate(5.684341886080802e-14 359.629) translate(581.1702500000001 61.471999999999994) scale(0.75) translate(-599.0115 16.32)"></path>
        <path id="path280271" style="font-style:normal;font-weight:200;font-size:32px;line-height:1;font-family:'Work Sans';font-variant-ligatures:none;text-align:center;text-anchor:middle" d="m 623.818,-16.32 q 1.28,0 2.016,0.544 l -0.416,1.504 q -0.736,-0.576 -2.048,-0.576 -1.216,0 -2.304,0.768 -1.056,0.736 -1.728,2.112 -0.64,1.344 -0.64,3.008 V 0 h -1.6 v -16 h 1.344 l 0.192,3.264 q 0.672,-1.696 1.984,-2.624 1.344,-0.96 3.2,-0.96 z" stroke-width="0" stroke-linejoin="miter" stroke-miterlimit="2" fill="#e5e5e5" stroke="#e5e5e5" transform="translate(5.684341886080802e-14 359.629) translate(595.485125 61.471999999999994) scale(0.75) translate(-617.098 16.32)"></path>
        <path id="path280273" style="font-style:normal;font-weight:200;font-size:32px;line-height:1;font-family:'Work Sans';font-variant-ligatures:none;text-align:center;text-anchor:middle" d="m 635.586,-16.32 q 2.752,0 4.416,1.536 1.696,1.536 1.696,4.416 V 0 h -1.6 v -9.856 q 0,-2.56 -1.248,-3.808 -1.248,-1.248 -3.424,-1.248 -1.536,0 -2.848,0.704 -1.312,0.704 -2.112,2.048 -0.768,1.344 -0.768,3.136 V 0 h -1.6 v -16 h 1.44 l 0.064,3.232 q 0.768,-1.728 2.336,-2.624 1.6,-0.928 3.648,-0.928 z" stroke-width="0" stroke-linejoin="miter" stroke-miterlimit="2" fill="#e5e5e5" stroke="#e5e5e5" transform="translate(5.684341886080802e-14 359.629) translate(604.485125 61.471999999999994) scale(0.75) translate(-628.098 16.32)"></path>
        <path id="path280275" style="font-style:normal;font-weight:200;font-size:32px;line-height:1;font-family:'Work Sans';font-variant-ligatures:none;text-align:center;text-anchor:middle" d="m 647.273,-19.104 q -0.608,0 -0.992,-0.352 -0.352,-0.384 -0.352,-0.992 0,-0.608 0.352,-0.96 0.384,-0.384 0.992,-0.384 0.608,0 0.96,0.384 0.384,0.352 0.384,0.96 0,0.608 -0.384,0.992 -0.352,0.352 -0.96,0.352 z M 648.073,0 h -1.6 v -16 h 1.6 z" stroke-width="0" stroke-linejoin="miter" stroke-miterlimit="2" fill="#e5e5e5" stroke="#e5e5e5" transform="translate(5.684341886080802e-14 359.629) translate(618.608375 57.367999999999995) scale(0.75) translate(-645.929 21.792)"></path>
        <path id="path280277" style="font-style:normal;font-weight:200;font-size:32px;line-height:1;font-family:'Work Sans';font-variant-ligatures:none;text-align:center;text-anchor:middle" d="m 651.1305,-1.248 9.408,-11.552 1.664,-1.856 -2.528,0.032 h -8.64 V -16 h 12.96 v 1.248 l -9.12,11.264 -1.92,2.144 2.88,-0.032 h 8.544 V 0 h -13.248 z" stroke-width="0" stroke-linejoin="miter" stroke-miterlimit="2" fill="#e5e5e5" stroke="#e5e5e5" transform="translate(5.684341886080802e-14 359.629) translate(623.1875 61.712) scale(0.75) translate(-651.0345 16)"></path>
        <path id="path280279" style="font-style:normal;font-weight:200;font-size:32px;line-height:1;font-family:'Work Sans';font-variant-ligatures:none;text-align:center;text-anchor:middle" d="m 680.3995,-1.056 q 0.8,0 1.248,-0.224 L 681.5515,0 q -0.576,0.32 -1.568,0.32 -1.12,0 -1.824,-0.608 -0.704,-0.608 -0.8,-2.112 -0.736,1.28 -2.368,2.016 -1.632,0.704 -3.424,0.704 -2.368,0 -3.808,-1.056 -1.408,-1.056 -1.408,-3.008 0,-3.712 6.08,-4.8 l 4.896,-0.864 v -1.408 q 0,-1.92 -1.152,-3.008 -1.12,-1.088 -3.2,-1.088 -3.808,0 -5.12,3.392 l -1.216,-0.896 q 0.704,-1.888 2.336,-2.88 1.632,-1.024 4,-1.024 2.784,0 4.352,1.376 1.6,1.344 1.6,3.936 v 8.256 q 0,1.696 1.472,1.696 z m -8.672,-0.032 q 1.344,0 2.624,-0.448 1.28,-0.48 2.112,-1.376 0.864,-0.928 0.864,-2.208 v -2.976 l -4.384,0.8 q -2.592,0.48 -3.776,1.344 -1.184,0.864 -1.184,2.208 0,1.28 0.992,1.984 0.992,0.672 2.752,0.672 z" stroke-width="0" stroke-linejoin="miter" stroke-miterlimit="2" fill="#e5e5e5" stroke="#e5e5e5" transform="translate(5.684341886080802e-14 359.629) translate(635.42525 61.471999999999994) scale(0.75) translate(-666.3515 16.32)"></path>
        <path id="path280281" style="font-style:normal;font-weight:200;font-size:32px;line-height:1;font-family:'Work Sans';font-variant-ligatures:none;text-align:center;text-anchor:middle" d="m 691.586,-16.32 q 2.752,0 4.416,1.536 1.696,1.536 1.696,4.416 V 0 h -1.6 v -9.856 q 0,-2.56 -1.248,-3.808 -1.248,-1.248 -3.424,-1.248 -1.536,0 -2.848,0.704 -1.312,0.704 -2.112,2.048 -0.768,1.344 -0.768,3.136 V 0 h -1.6 v -16 h 1.44 l 0.064,3.232 q 0.768,-1.728 2.336,-2.624 1.6,-0.928 3.648,-0.928 z" stroke-width="0" stroke-linejoin="miter" stroke-miterlimit="2" fill="#e5e5e5" stroke="#e5e5e5" transform="translate(5.684341886080802e-14 359.629) translate(649.4851249999999 61.471999999999994) scale(0.75) translate(-684.098 16.32)"></path>
        <path id="path280283" style="font-style:normal;font-weight:200;font-size:32px;line-height:1;font-family:'Work Sans';font-variant-ligatures:none;text-align:center;text-anchor:middle" d="M 716.265,-23.36 V 0 h -1.44 l -0.096,-3.584 q -0.672,1.824 -2.24,2.88 -1.568,1.024 -3.712,1.024 -3.392,0 -5.376,-2.208 -1.952,-2.208 -1.952,-6.112 0,-3.904 1.952,-6.112 1.984,-2.208 5.376,-2.208 2.08,0 3.616,0.992 1.536,0.992 2.272,2.72 V -23.36 Z m -7.296,22.272 q 2.496,0 4.032,-1.664 1.536,-1.696 1.664,-4.576 v -1.344 q -0.16,-2.88 -1.696,-4.544 -1.504,-1.696 -4,-1.696 -2.784,0 -4.352,1.856 -1.568,1.824 -1.568,5.056 0,3.232 1.568,5.088 1.568,1.824 4.352,1.824 z" stroke-width="0" stroke-linejoin="miter" stroke-miterlimit="2" fill="#e5e5e5" stroke="#e5e5e5" transform="translate(5.684341886080802e-14 359.629) translate(663.2483749999999 56.19200000000001) scale(0.75) translate(-701.449 23.36)"></path>
        <path id="path280285" style="font-style:normal;font-weight:200;font-size:32px;line-height:1;font-family:'Work Sans';font-variant-ligatures:none;text-align:center;text-anchor:middle" d="m 727.815,-16.32 q 3.552,0 5.568,2.24 2.048,2.208 2.048,6.08 0,3.872 -2.048,6.112 -2.016,2.208 -5.568,2.208 -3.552,0 -5.6,-2.208 -2.016,-2.24 -2.016,-6.112 0,-3.872 2.016,-6.08 2.048,-2.24 5.6,-2.24 z m 0,1.376 q -2.816,0 -4.416,1.856 -1.6,1.856 -1.6,5.088 0,3.232 1.6,5.088 1.6,1.856 4.416,1.856 2.816,0 4.416,-1.856 1.6,-1.856 1.6,-5.088 0,-3.232 -1.6,-5.088 -1.6,-1.856 -4.416,-1.856 z" stroke-width="0" stroke-linejoin="miter" stroke-miterlimit="2" fill="#e5e5e5" stroke="#e5e5e5" transform="translate(5.684341886080802e-14 359.629) translate(678.0608749999999 61.471999999999994) scale(0.75) translate(-720.199 16.32)"></path>
        <path id="path280287" style="font-style:normal;font-weight:200;font-size:32px;line-height:1;font-family:'Work Sans';font-variant-ligatures:none;text-align:center;text-anchor:middle" d="m 755.0025,-16.32 q 3.552,0 5.568,2.24 2.048,2.208 2.048,6.08 0,3.872 -2.048,6.112 -2.016,2.208 -5.568,2.208 -3.552,0 -5.6,-2.208 -2.016,-2.24 -2.016,-6.112 0,-3.872 2.016,-6.08 2.048,-2.24 5.6,-2.24 z m 0,1.376 q -2.816,0 -4.416,1.856 -1.6,1.856 -1.6,5.088 0,3.232 1.6,5.088 1.6,1.856 4.416,1.856 2.816,0 4.416,-1.856 1.6,-1.856 1.6,-5.088 0,-3.232 -1.6,-5.088 -1.6,-1.856 -4.416,-1.856 z" stroke-width="0" stroke-linejoin="miter" stroke-miterlimit="2" fill="#e5e5e5" stroke="#e5e5e5" transform="translate(5.684341886080802e-14 359.629) translate(699.2014999999999 61.471999999999994) scale(0.75) translate(-747.3865 16.32)"></path>
        <path id="path280289" style="font-style:normal;font-weight:200;font-size:32px;line-height:1;font-family:'Work Sans';font-variant-ligatures:none;text-align:center;text-anchor:middle" d="m 782.126,-16.32 q 2.4,0 4.064,1.152 1.696,1.12 2.432,3.168 l -1.504,0.704 q -0.544,-1.76 -1.824,-2.688 -1.28,-0.928 -3.2,-0.928 -2.784,0 -4.352,1.856 -1.568,1.824 -1.568,5.056 0,3.264 1.536,5.088 1.568,1.824 4.352,1.824 2.048,0 3.456,-0.992 1.44,-1.024 1.76,-2.816 l 1.472,0.512 q -0.64,2.176 -2.432,3.456 -1.76,1.248 -4.224,1.248 -3.552,0 -5.536,-2.208 -1.984,-2.208 -1.984,-6.112 0,-3.904 1.984,-6.112 2.016,-2.208 5.568,-2.208 z" stroke-width="0" stroke-linejoin="miter" stroke-miterlimit="2" fill="#e5e5e5" stroke="#e5e5e5" transform="translate(5.684341886080802e-14 359.629) translate(720.3421249999999 61.471999999999994) scale(0.75) translate(-774.574 16.32)"></path>
        <path id="path280291" style="font-style:normal;font-weight:200;font-size:32px;line-height:1;font-family:'Work Sans';font-variant-ligatures:none;text-align:center;text-anchor:middle" d="M 805.628,-16 V 0 h -1.44 l -0.064,-3.168 q -0.8,1.696 -2.4,2.592 -1.6,0.896 -3.776,0.896 -2.624,0 -4.192,-1.44 -1.568,-1.472 -1.568,-4.32 V -16 h 1.6 v 10.176 q 0,4.736 4.416,4.736 1.76,0 3.072,-0.768 1.344,-0.768 2.048,-2.08 0.704,-1.312 0.704,-2.88 V -16 Z" stroke-width="0" stroke-linejoin="miter" stroke-miterlimit="2" fill="#e5e5e5" stroke="#e5e5e5" transform="translate(5.684341886080802e-14 359.629) translate(734.3026249999998 61.712) scale(0.75) translate(-792.188 16)"></path>
        <path id="path280293" style="font-style:normal;font-weight:200;font-size:32px;line-height:1;font-family:'Work Sans';font-variant-ligatures:none;text-align:center;text-anchor:middle" d="m 811.2105,-19.104 q -0.608,0 -0.992,-0.352 -0.352,-0.384 -0.352,-0.992 0,-0.608 0.352,-0.96 0.384,-0.384 0.992,-0.384 0.608,0 0.96,0.384 0.384,0.352 0.384,0.96 0,0.608 -0.384,0.992 -0.352,0.352 -0.96,0.352 z m 0.8,19.104 h -1.6 v -16 h 1.6 z" stroke-width="0" stroke-linejoin="miter" stroke-miterlimit="2" fill="#e5e5e5" stroke="#e5e5e5" transform="translate(5.684341886080802e-14 359.629) translate(748.3114999999998 57.367999999999995) scale(0.75) translate(-809.8665 21.792)"></path>
        <path id="path280295" style="font-style:normal;font-weight:200;font-size:32px;line-height:1;font-family:'Work Sans';font-variant-ligatures:none;text-align:center;text-anchor:middle" d="M 830.14,-23.36 V 0 h -1.44 l -0.096,-3.584 q -0.672,1.824 -2.24,2.88 -1.568,1.024 -3.712,1.024 -3.392,0 -5.376,-2.208 -1.952,-2.208 -1.952,-6.112 0,-3.904 1.952,-6.112 1.984,-2.208 5.376,-2.208 2.08,0 3.616,0.992 1.536,0.992 2.272,2.72 V -23.36 Z m -7.296,22.272 q 2.496,0 4.032,-1.664 1.536,-1.696 1.664,-4.576 v -1.344 q -0.16,-2.88 -1.696,-4.544 -1.504,-1.696 -4,-1.696 -2.784,0 -4.352,1.856 -1.568,1.824 -1.568,5.056 0,3.232 1.568,5.088 1.568,1.824 4.352,1.824 z" stroke-width="0" stroke-linejoin="miter" stroke-miterlimit="2" fill="#e5e5e5" stroke="#e5e5e5" transform="translate(5.684341886080802e-14 359.629) translate(753.1546249999998 56.19200000000001) scale(0.75) translate(-815.324 23.36)"></path>
        <path id="path280297" style="font-style:normal;font-weight:200;font-size:32px;line-height:1;font-family:'Work Sans';font-variant-ligatures:none;text-align:center;text-anchor:middle" d="m 847.962,-1.056 q 0.8,0 1.248,-0.224 L 849.114,0 q -0.576,0.32 -1.568,0.32 -1.12,0 -1.824,-0.608 -0.704,-0.608 -0.8,-2.112 -0.736,1.28 -2.368,2.016 -1.632,0.704 -3.424,0.704 -2.368,0 -3.808,-1.056 -1.408,-1.056 -1.408,-3.008 0,-3.712 6.08,-4.8 l 4.896,-0.864 v -1.408 q 0,-1.92 -1.152,-3.008 -1.12,-1.088 -3.2,-1.088 -3.808,0 -5.12,3.392 l -1.216,-0.896 q 0.704,-1.888 2.336,-2.88 1.632,-1.024 4,-1.024 2.784,0 4.352,1.376 1.6,1.344 1.6,3.936 v 8.256 q 0,1.696 1.472,1.696 z m -8.672,-0.032 q 1.344,0 2.624,-0.448 1.28,-0.48 2.112,-1.376 0.864,-0.928 0.864,-2.208 v -2.976 l -4.384,0.8 q -2.592,0.48 -3.776,1.344 -1.184,0.864 -1.184,2.208 0,1.28 0.992,1.984 0.992,0.672 2.752,0.672 z" stroke-width="0" stroke-linejoin="miter" stroke-miterlimit="2" fill="#e5e5e5" stroke="#e5e5e5" transform="translate(5.684341886080802e-14 359.629) translate(767.8471249999998 61.471999999999994) scale(0.75) translate(-833.914 16.32)"></path>
        <path id="path280299" style="font-style:normal;font-weight:200;font-size:32px;line-height:1;font-family:'Work Sans';font-variant-ligatures:none;text-align:center;text-anchor:middle" d="M 865.4525,-23.36 V 0 h -1.44 l -0.096,-3.584 q -0.672,1.824 -2.24,2.88 -1.568,1.024 -3.712,1.024 -3.392,0 -5.376,-2.208 -1.952,-2.208 -1.952,-6.112 0,-3.904 1.952,-6.112 1.984,-2.208 5.376,-2.208 2.08,0 3.616,0.992 1.536,0.992 2.272,2.72 V -23.36 Z m -7.296,22.272 q 2.496,0 4.032,-1.664 1.536,-1.696 1.664,-4.576 v -1.344 q -0.16,-2.88 -1.696,-4.544 -1.504,-1.696 -4,-1.696 -2.784,0 -4.352,1.856 -1.568,1.824 -1.568,5.056 0,3.232 1.568,5.088 1.568,1.824 4.352,1.824 z" stroke-width="0" stroke-linejoin="miter" stroke-miterlimit="2" fill="#e5e5e5" stroke="#e5e5e5" transform="translate(5.684341886080802e-14 359.629) translate(781.1389999999997 56.19200000000001) scale(0.75) translate(-850.6365 23.36)"></path>
        <path id="path280301" style="font-style:normal;font-weight:200;font-size:32px;line-height:1;font-family:'Work Sans';font-variant-ligatures:none;text-align:center;text-anchor:middle" d="m 877.0025,-16.32 q 3.552,0 5.568,2.24 2.048,2.208 2.048,6.08 0,3.872 -2.048,6.112 -2.016,2.208 -5.568,2.208 -3.552,0 -5.6,-2.208 -2.016,-2.24 -2.016,-6.112 0,-3.872 2.016,-6.08 2.048,-2.24 5.6,-2.24 z m 0,1.376 q -2.816,0 -4.416,1.856 -1.6,1.856 -1.6,5.088 0,3.232 1.6,5.088 1.6,1.856 4.416,1.856 2.816,0 4.416,-1.856 1.6,-1.856 1.6,-5.088 0,-3.232 -1.6,-5.088 -1.6,-1.856 -4.416,-1.856 z" stroke-width="0" stroke-linejoin="miter" stroke-miterlimit="2" fill="#e5e5e5" stroke="#e5e5e5" transform="translate(5.684341886080802e-14 359.629) translate(795.9514999999997 61.471999999999994) scale(0.75) translate(-869.3865 16.32)"></path>
        <path id="path280303" style="font-style:normal;font-weight:200;font-size:32px;line-height:1;font-family:'Work Sans';font-variant-ligatures:none;text-align:center;text-anchor:middle" d="m 888.52,-2.624 q 0.64,0 1.024,0.416 0.416,0.384 0.416,1.024 0,0.64 -0.416,1.056 -0.384,0.384 -1.024,0.384 -0.64,0 -1.056,-0.384 -0.384,-0.416 -0.384,-1.056 0,-0.64 0.384,-1.024 0.416,-0.416 1.056,-0.416 z" stroke-width="0" stroke-linejoin="miter" stroke-miterlimit="2" fill="#e5e5e5" stroke="#e5e5e5" transform="translate(5.684341886080802e-14 359.629) translate(809.9716249999997 71.744) scale(0.75) translate(-887.08 2.624)"></path>
      </g>
      <g id="title" style="font-style:normal;font-weight:normal;font-size:72px;line-height:1;font-family:'Brandmark Sans 14 Color';font-variant-ligatures:normal;text-align:center;text-anchor:middle" transform="translate(0 0)">
        <g id="path280306" aria-label="E" transform="translate(0 294.079) translate(290.8175 37.507999999999996) scale(1.25) translate(-346.85844 49.968)"> <path class="c1" d="M98.83369,110.86331h15.3374v11.09119H86.3564V72.04483h12.47729v0.09363h15.3374v11.09106h-15.3374 V110.86331z" transform="translate(260.50204 -122.01283)" stroke-width="0" stroke-linejoin="miter" stroke-miterlimit="2" fill="#e5e5e5" stroke="#e5e5e5"></path> <path class="c3" d="M101.65059,97.04178c0-3.72205,2.92358-6.73914,6.53027-6.73914c3.60596,0,6.52954,3.01709,6.52954,6.73914 s-2.92358,6.73901-6.52954,6.73901C104.57417,103.78079,101.65059,100.76382,101.65059,97.04178z" transform="translate(260.50204 -122.01283)" stroke-width="0" stroke-linejoin="miter" stroke-miterlimit="2" fill="#ceee00" stroke="#ceee00"></path> </g>
        <g id="path280308" aria-label="T" transform="translate(0 294.079) translate(334.1028125 37.507999999999996) scale(1.25) translate(-378.48669 49.968)"> <path class="c1" d="M116.64717,72.13846v11.09106h-10.43652v38.72498H93.7336V83.22952H83.2961V72.13846h10.4375v-0.09363 h12.47705v0.09363H116.64717z" transform="translate(295.19059 -122.01283)" stroke-width="0" stroke-linejoin="miter" stroke-miterlimit="2" fill="#e5e5e5" stroke="#e5e5e5"></path> </g>
        <g id="path280310" aria-label="E" transform="translate(0 294.079) translate(385.1534375 37.507999999999996) scale(1.25) translate(-416.32719 49.968)"> <path class="c1" d="M98.83369,110.86331h15.3374v11.09119H86.3564V72.04483h12.47729v0.09363h15.3374v11.09106h-15.3374 V110.86331z" transform="translate(329.97079 -122.01283)" stroke-width="0" stroke-linejoin="miter" stroke-miterlimit="2" fill="#e5e5e5" stroke="#e5e5e5"></path> <path class="c3" d="M101.65059,97.04178c0-3.72205,2.92358-6.73914,6.53027-6.73914c3.60596,0,6.52954,3.01709,6.52954,6.73914 s-2.92358,6.73901-6.52954,6.73901C104.57417,103.78079,101.65059,100.76382,101.65059,97.04178z" transform="translate(329.97079 -122.01283)" stroke-width="0" stroke-linejoin="miter" stroke-miterlimit="2" fill="#ceee00" stroke="#ceee00"></path> </g>
        <g id="path280312" aria-label="R" transform="translate(0 294.079) translate(432.84875 37.507999999999996) scale(1.25) translate(-451.48344 49.968)"> <path class="c1" d="M121.81953,121.9545h-15.25l-11.05078-17.96851h-1.29248v17.96851H81.74873V72.04483h19.80762 c5.28662,0,15.73242,2.17822,15.73242,15.97095c0,9.30176-4.75146,13.31763-9.46729,14.94849L121.81953,121.9545z M104.69942,88.01578c0-4.56226-2.99414-5.90808-6.00537-5.90808h-4.46777v11.81616h4.46777 C101.70528,93.92386,104.69942,92.57816,104.69942,88.01578z" transform="translate(369.73471 -122.01283)" stroke-width="0" stroke-linejoin="miter" stroke-miterlimit="2" fill="#e5e5e5" stroke="#e5e5e5"></path> </g>
        <g id="path280314" aria-label="N" transform="translate(0 294.079) translate(492.145625 37.507999999999996) scale(1.25) translate(-495.92094 49.968)"> <path class="c1" d="M124.21992,72.04483v49.90967h-12.47705L88.21407,91.15237v30.80212H75.73653V72.04483h12.47754 l23.52881,30.80212V72.04483H124.21992z" transform="translate(420.18441 -122.01283)" stroke-width="0" stroke-linejoin="miter" stroke-miterlimit="2" fill="#e5e5e5" stroke="#e5e5e5"></path> </g>
        <g id="path280316" aria-label="I" transform="translate(0 294.079) translate(566.3839 37.507999999999996) scale(1.25) translate(-552.31156 49.968)"> <path class="c1" d="M93.73653,121.9545V72.04483h12.47754v49.90967H93.73653z" transform="translate(458.57503 -122.01283)" stroke-width="0" stroke-linejoin="miter" stroke-miterlimit="2" fill="#e5e5e5" stroke="#e5e5e5"></path> </g>
        <g id="path280318" aria-label="U" transform="translate(0 294.079) translate(594.8121875 37.507999999999996) scale(1.25) translate(-572.05419 49.968)"> <path class="c1" d="M121.16182,72.04483v29.83716c0,7.55994-1.83887,21.45935-21.18262,21.45935 s-21.18262-13.89941-21.18262-21.45935V72.04483h12.47705v27.73962c0,11.21643,4.35352,12.19434,8.70557,12.19434 c4.35303,0,8.70557-0.97864,8.70557-12.19434V72.04483H121.16182z" transform="translate(493.25761 -122.01283)" stroke-width="0" stroke-linejoin="miter" stroke-miterlimit="2" fill="#e5e5e5" stroke="#e5e5e5"></path> </g>
        <g id="path280320" aria-label="M" transform="translate(0 294.079) translate(656.8625000000001 37.507999999999996) scale(1.25) translate(-618.69444 49.968)"> <path class="c1" d="M130.52705,121.9545h-12.47754l-4.3252-28.19556l-8.07324,20.73853l-2.9043,7.4585h-5.48975 l-2.90479-7.4585l-8.07764-20.73914l-4.32471,28.19617H69.47285l8.34839-49.90393l-0.00146-0.00354h0.00146l0.00073-0.0022 h11.78467l-0.00098,0.0022h0.69141l9.70508,26.82654l9.69775-26.82654h0.69336v-0.0022h11.78467L130.52705,121.9545z" transform="translate(549.22159 -122.01283)" stroke-width="0" stroke-linejoin="miter" stroke-miterlimit="2" fill="#e5e5e5" stroke="#e5e5e5"></path> </g>
              </g>
      <image xlink:href="" id="icon" x="0" y="0" style="display: none;"></image>
    </g>
  </g>
</svg>